<svg width="93" height="94" viewBox="0 0 93 94" fill="none" xmlns="http://www.w3.org/2000/svg">
<path d="M92.9546 47.2995C92.9546 73.0354 72.1969 93.8985 46.5909 93.8985C20.985 93.8985 0.227295 73.0354 0.227295 47.2995C0.227295 21.5636 20.985 0.7005 46.5909 0.7005C72.1969 0.7005 92.9546 21.5636 92.9546 47.2995ZM4.86366 47.2995C4.86366 70.4618 23.5456 89.2386 46.5909 89.2386C69.6363 89.2386 88.3182 70.4618 88.3182 47.2995C88.3182 24.1372 69.6363 5.3604 46.5909 5.3604C23.5456 5.3604 4.86366 24.1372 4.86366 47.2995Z" fill="#323551"/>
<path d="M38.2783 51V45.46C38.2783 44.74 38.0516 44.1467 37.5983 43.68C37.1449 43.2133 36.5583 42.98 35.8383 42.98C35.3583 42.98 34.9316 43.0867 34.5583 43.3C34.1849 43.5133 33.8916 43.8067 33.6783 44.18C33.4649 44.5533 33.3583 44.98 33.3583 45.46L32.6183 45.04C32.6183 44.32 32.7783 43.68 33.0983 43.12C33.4183 42.56 33.8649 42.12 34.4383 41.8C35.0116 41.4667 35.6583 41.3 36.3783 41.3C37.0983 41.3 37.7316 41.48 38.2783 41.84C38.8383 42.2 39.2783 42.6733 39.5983 43.26C39.9183 43.8333 40.0783 44.4467 40.0783 45.1V51H38.2783ZM31.5583 51V41.5H33.3583V51H31.5583ZM41.4753 51.8L47.0353 36.34H48.7153L43.1753 51.8H41.4753ZM48.4559 51L54.1359 37.12H55.4959L61.1559 51H59.1159L54.4559 39.26H55.1559L50.4559 51H48.4559ZM51.1559 47.86V46.22H58.4559V47.86H51.1559Z" fill="#9C9FBB"/>
</svg>
