<svg width="197" height="198" viewBox="0 0 197 198" fill="none" xmlns="http://www.w3.org/2000/svg">
<path d="M89.3025 106.848V99.9227C89.3025 99.0227 89.0191 98.281 88.4525 97.6977C87.8858 97.1144 87.1525 96.8227 86.2525 96.8227C85.6525 96.8227 85.1191 96.9561 84.6525 97.2227C84.1858 97.4894 83.8191 97.8561 83.5525 98.3227C83.2858 98.7894 83.1525 99.3227 83.1525 99.9227L82.2275 99.3977C82.2275 98.4977 82.4275 97.6977 82.8275 96.9977C83.2275 96.2977 83.7858 95.7477 84.5025 95.3477C85.2191 94.9311 86.0275 94.7227 86.9275 94.7227C87.8275 94.7227 88.6191 94.9477 89.3025 95.3977C90.0025 95.8477 90.5525 96.4394 90.9525 97.1727C91.3525 97.8894 91.5525 98.6561 91.5525 99.4727V106.848H89.3025ZM80.9025 106.848V94.9727H83.1525V106.848H80.9025ZM93.2987 107.848L100.249 88.5227H102.349L95.4237 107.848H93.2987ZM102.025 106.848L109.125 89.4977H110.825L117.9 106.848H115.35L109.525 92.1727H110.4L104.525 106.848H102.025ZM105.4 102.923V100.873H114.525V102.923H105.4Z" fill="#9C9FBB"/>
<path d="M196.115 98.9232C196.115 153.265 152.284 197.319 98.2166 197.319C44.1488 197.319 0.318237 153.265 0.318237 98.9232C0.318237 44.581 44.1488 0.527924 98.2166 0.527924C152.284 0.527924 196.115 44.581 196.115 98.9232ZM5.21316 98.9232C5.21316 150.548 46.8522 192.399 98.2166 192.399C149.581 192.399 191.22 150.548 191.22 98.9232C191.22 47.2981 149.581 5.44769 98.2166 5.44769C46.8522 5.44769 5.21316 47.2981 5.21316 98.9232Z" fill="#323551"/>
</svg>
