<svg width="235" height="236" viewBox="0 0 235 236" fill="none" xmlns="http://www.w3.org/2000/svg">
<path d="M100.372 122.518L106.872 106.543L109.197 106.618L102.847 122.518H100.372ZM97.6472 107.268V105.168H109.197V106.618L108.172 107.268H97.6472ZM116.32 122.768C115.17 122.768 114.154 122.551 113.27 122.118C112.404 121.684 111.729 121.084 111.245 120.318C110.762 119.551 110.52 118.684 110.52 117.718C110.52 116.934 110.67 116.218 110.97 115.568C111.27 114.918 111.712 114.368 112.295 113.918C112.879 113.451 113.562 113.118 114.345 112.918L114.42 113.593C113.754 113.409 113.187 113.118 112.72 112.718C112.254 112.301 111.895 111.818 111.645 111.268C111.412 110.701 111.295 110.101 111.295 109.468C111.295 108.568 111.512 107.776 111.945 107.093C112.379 106.409 112.97 105.876 113.72 105.493C114.487 105.093 115.354 104.893 116.32 104.893C117.304 104.893 118.17 105.093 118.92 105.493C119.67 105.876 120.262 106.409 120.695 107.093C121.129 107.776 121.345 108.568 121.345 109.468C121.345 110.101 121.22 110.701 120.97 111.268C120.737 111.818 120.387 112.301 119.92 112.718C119.47 113.118 118.912 113.409 118.245 113.593L118.295 112.918C119.095 113.118 119.779 113.451 120.345 113.918C120.929 114.368 121.37 114.918 121.67 115.568C121.987 116.218 122.145 116.934 122.145 117.718C122.145 118.684 121.904 119.551 121.42 120.318C120.937 121.084 120.254 121.684 119.37 122.118C118.504 122.551 117.487 122.768 116.32 122.768ZM116.32 120.643C117.02 120.643 117.629 120.509 118.145 120.243C118.679 119.959 119.095 119.576 119.395 119.093C119.712 118.609 119.87 118.051 119.87 117.418C119.87 116.801 119.712 116.251 119.395 115.768C119.095 115.284 118.679 114.909 118.145 114.643C117.629 114.359 117.02 114.218 116.32 114.218C115.637 114.218 115.029 114.359 114.495 114.643C113.962 114.909 113.537 115.284 113.22 115.768C112.92 116.251 112.77 116.801 112.77 117.418C112.77 118.051 112.92 118.609 113.22 119.093C113.537 119.576 113.962 119.959 114.495 120.243C115.029 120.509 115.637 120.643 116.32 120.643ZM116.32 112.393C117.154 112.393 117.837 112.134 118.37 111.618C118.904 111.101 119.17 110.434 119.17 109.618C119.17 108.818 118.904 108.168 118.37 107.668C117.837 107.151 117.154 106.893 116.32 106.893C115.504 106.893 114.829 107.151 114.295 107.668C113.762 108.168 113.495 108.818 113.495 109.618C113.495 110.434 113.762 111.101 114.295 111.618C114.829 112.134 115.504 112.393 116.32 112.393ZM127.941 111.943C127.307 111.943 126.724 111.784 126.191 111.468C125.657 111.151 125.232 110.726 124.916 110.193C124.599 109.659 124.441 109.068 124.441 108.418C124.441 107.751 124.591 107.159 124.891 106.643C125.207 106.126 125.632 105.709 126.166 105.393C126.699 105.076 127.291 104.918 127.941 104.918C128.607 104.918 129.207 105.076 129.741 105.393C130.274 105.709 130.699 106.126 131.016 106.643C131.332 107.159 131.491 107.751 131.491 108.418C131.491 109.068 131.332 109.659 131.016 110.193C130.699 110.726 130.274 111.151 129.741 111.468C129.224 111.784 128.624 111.943 127.941 111.943ZM127.941 110.168C128.441 110.168 128.849 110.009 129.166 109.693C129.482 109.359 129.641 108.934 129.641 108.418C129.641 107.901 129.474 107.484 129.141 107.168C128.824 106.851 128.424 106.693 127.941 106.693C127.457 106.693 127.057 106.851 126.741 107.168C126.441 107.484 126.291 107.901 126.291 108.418C126.291 108.934 126.441 109.359 126.741 109.693C127.057 110.009 127.457 110.168 127.941 110.168ZM134.916 122.768C134.266 122.768 133.674 122.609 133.141 122.293C132.607 121.976 132.182 121.559 131.866 121.043C131.549 120.509 131.391 119.909 131.391 119.243C131.391 118.593 131.549 118.009 131.866 117.493C132.182 116.959 132.607 116.534 133.141 116.218C133.674 115.901 134.266 115.743 134.916 115.743C135.566 115.743 136.157 115.901 136.691 116.218C137.241 116.534 137.674 116.959 137.991 117.493C138.307 118.009 138.466 118.593 138.466 119.243C138.466 119.909 138.307 120.509 137.991 121.043C137.674 121.559 137.249 121.976 136.716 122.293C136.182 122.609 135.582 122.768 134.916 122.768ZM134.916 120.993C135.416 120.993 135.824 120.834 136.141 120.518C136.457 120.184 136.616 119.759 136.616 119.243C136.616 118.743 136.449 118.334 136.116 118.018C135.799 117.684 135.399 117.518 134.916 117.518C134.432 117.518 134.032 117.684 133.716 118.018C133.399 118.334 133.241 118.743 133.241 119.243C133.241 119.759 133.399 120.184 133.716 120.518C134.032 120.834 134.432 120.993 134.916 120.993ZM124.741 122.518L135.866 105.168H138.141L127.016 122.518H124.741Z" fill="#9C9FBB"/>
<path d="M3.26618 109.219C1.65085 109.095 0.437884 107.685 0.600711 106.073C3.63986 75.9867 18.0666 48.1771 40.9591 28.4386C63.8441 8.70654 93.374 -1.39441 123.412 0.154847C125.038 0.238715 126.253 1.65923 126.13 3.28276C126.006 4.90806 124.587 6.12082 122.959 6.03909C94.4757 4.60911 66.4832 14.2042 44.781 32.9164C23.0714 51.6351 9.37595 77.9944 6.4559 106.518C6.29073 108.132 4.88327 109.343 3.26618 109.219Z" fill="#323551"/>
<path d="M21.5534 180.862C20.1915 181.755 18.3596 181.373 17.5071 179.985C9.93186 167.654 4.677 154.018 2.01435 139.758C-0.649237 125.494 -0.669935 110.866 1.94434 96.6085C2.23717 95.0115 3.80023 93.9944 5.38878 94.3301C6.97276 94.6647 7.98283 96.218 7.69275 97.8107C5.23364 111.313 5.26142 125.163 7.78355 138.67C10.3057 152.178 15.2761 165.095 22.4387 176.783C23.2841 178.162 22.9064 179.974 21.5534 180.862Z" fill="#82F0FF"/>
<path d="M181.165 213.55C182.065 214.898 181.708 216.724 180.341 217.596C167.485 225.803 153.155 231.423 138.146 234.131C122.177 237.013 105.786 236.537 90.0089 232.732C74.2317 228.928 59.4105 221.878 46.4804 212.027C34.3252 202.766 24.0894 191.219 16.3371 178.039C15.5169 176.644 16.0258 174.859 17.4369 174.067C18.8566 173.271 20.6499 173.782 21.4773 175.184C28.8314 187.645 38.5243 198.562 50.0263 207.325C62.3099 216.684 76.3901 223.381 91.3784 226.995C106.367 230.61 121.938 231.062 137.109 228.324C151.31 225.762 164.872 220.455 177.047 212.71C178.424 211.834 180.259 212.192 181.165 213.55Z" fill="#FFA5CB"/>
<path d="M228.418 146.029C229.988 146.425 230.944 148.018 230.513 149.578C226.173 165.28 218.641 179.918 208.381 192.564C198.129 205.199 185.391 215.553 170.976 222.984C169.525 223.732 167.756 223.11 167.051 221.638C166.35 220.174 166.966 218.423 168.408 217.677C182.056 210.622 194.119 200.807 203.831 188.836C213.545 176.864 220.685 163.012 224.814 148.154C225.249 146.589 226.844 145.631 228.418 146.029Z" fill="#63ABFD"/>
<path d="M117.398 2.94986C117.398 1.3207 118.719 -0.00389101 120.348 0.0372458C138.028 0.483804 155.392 4.93999 171.138 13.0883C187.759 21.6894 202.096 34.1557 212.957 49.4497C223.817 64.7438 230.886 82.4234 233.575 101.018C236.124 118.639 234.67 136.598 229.339 153.553C228.852 155.103 227.173 155.92 225.636 155.39C224.107 154.861 223.297 153.196 223.781 151.652C228.814 135.581 230.182 118.564 227.766 101.866C225.211 84.202 218.496 67.4063 208.179 52.877C197.862 38.3476 184.241 26.5047 168.451 18.3336C153.536 10.6154 137.093 6.38414 120.348 5.93892C118.719 5.89562 117.398 4.57902 117.398 2.94986Z" fill="#E697FF"/>
</svg>
