<svg width="197" height="198" viewBox="0 0 197 198" fill="none" xmlns="http://www.w3.org/2000/svg">
<path d="M81.0435 106.848L87.5435 90.8727L89.8685 90.9477L83.5185 106.848H81.0435ZM78.3185 91.5977V89.4977H89.8685V90.9477L88.8435 91.5977H78.3185ZM96.9917 107.098C95.8417 107.098 94.825 106.881 93.9417 106.448C93.075 106.014 92.4 105.414 91.9167 104.648C91.4334 103.881 91.1917 103.014 91.1917 102.048C91.1917 101.264 91.3417 100.548 91.6417 99.8977C91.9417 99.2477 92.3834 98.6977 92.9667 98.2477C93.55 97.781 94.2334 97.4477 95.0167 97.2477L95.0917 97.9227C94.425 97.7394 93.8584 97.4477 93.3917 97.0477C92.925 96.631 92.5667 96.1477 92.3167 95.5977C92.0834 95.031 91.9667 94.431 91.9667 93.7977C91.9667 92.8977 92.1834 92.106 92.6167 91.4227C93.05 90.7394 93.6417 90.206 94.3917 89.8227C95.1584 89.4227 96.025 89.2227 96.9917 89.2227C97.975 89.2227 98.8417 89.4227 99.5917 89.8227C100.342 90.206 100.933 90.7394 101.367 91.4227C101.8 92.106 102.017 92.8977 102.017 93.7977C102.017 94.431 101.892 95.031 101.642 95.5977C101.408 96.1477 101.058 96.631 100.592 97.0477C100.142 97.4477 99.5834 97.7394 98.9167 97.9227L98.9667 97.2477C99.7667 97.4477 100.45 97.781 101.017 98.2477C101.6 98.6977 102.042 99.2477 102.342 99.8977C102.658 100.548 102.817 101.264 102.817 102.048C102.817 103.014 102.575 103.881 102.092 104.648C101.608 105.414 100.925 106.014 100.042 106.448C99.175 106.881 98.1584 107.098 96.9917 107.098ZM96.9917 104.973C97.6917 104.973 98.3 104.839 98.8167 104.573C99.35 104.289 99.7667 103.906 100.067 103.423C100.383 102.939 100.542 102.381 100.542 101.748C100.542 101.131 100.383 100.581 100.067 100.098C99.7667 99.6144 99.35 99.2394 98.8167 98.9727C98.3 98.6894 97.6917 98.5477 96.9917 98.5477C96.3084 98.5477 95.7 98.6894 95.1667 98.9727C94.6334 99.2394 94.2084 99.6144 93.8917 100.098C93.5917 100.581 93.4417 101.131 93.4417 101.748C93.4417 102.381 93.5917 102.939 93.8917 103.423C94.2084 103.906 94.6334 104.289 95.1667 104.573C95.7 104.839 96.3084 104.973 96.9917 104.973ZM96.9917 96.7227C97.825 96.7227 98.5084 96.4644 99.0417 95.9477C99.575 95.431 99.8417 94.7644 99.8417 93.9477C99.8417 93.1477 99.575 92.4977 99.0417 91.9977C98.5084 91.481 97.825 91.2227 96.9917 91.2227C96.175 91.2227 95.5 91.481 94.9667 91.9977C94.4334 92.4977 94.1667 93.1477 94.1667 93.9477C94.1667 94.7644 94.4334 95.431 94.9667 95.9477C95.5 96.4644 96.175 96.7227 96.9917 96.7227ZM108.612 96.2727C107.978 96.2727 107.395 96.1144 106.862 95.7977C106.328 95.481 105.903 95.056 105.587 94.5227C105.27 93.9894 105.112 93.3977 105.112 92.7477C105.112 92.081 105.262 91.4894 105.562 90.9727C105.878 90.456 106.303 90.0394 106.837 89.7227C107.37 89.406 107.962 89.2477 108.612 89.2477C109.278 89.2477 109.878 89.406 110.412 89.7227C110.945 90.0394 111.37 90.456 111.687 90.9727C112.003 91.4894 112.162 92.081 112.162 92.7477C112.162 93.3977 112.003 93.9894 111.687 94.5227C111.37 95.056 110.945 95.481 110.412 95.7977C109.895 96.1144 109.295 96.2727 108.612 96.2727ZM108.612 94.4977C109.112 94.4977 109.52 94.3394 109.837 94.0227C110.153 93.6894 110.312 93.2644 110.312 92.7477C110.312 92.231 110.145 91.8144 109.812 91.4977C109.495 91.181 109.095 91.0227 108.612 91.0227C108.128 91.0227 107.728 91.181 107.412 91.4977C107.112 91.8144 106.962 92.231 106.962 92.7477C106.962 93.2644 107.112 93.6894 107.412 94.0227C107.728 94.3394 108.128 94.4977 108.612 94.4977ZM115.587 107.098C114.937 107.098 114.345 106.939 113.812 106.623C113.278 106.306 112.853 105.889 112.537 105.373C112.22 104.839 112.062 104.239 112.062 103.573C112.062 102.923 112.22 102.339 112.537 101.823C112.853 101.289 113.278 100.864 113.812 100.548C114.345 100.231 114.937 100.073 115.587 100.073C116.237 100.073 116.828 100.231 117.362 100.548C117.912 100.864 118.345 101.289 118.662 101.823C118.978 102.339 119.137 102.923 119.137 103.573C119.137 104.239 118.978 104.839 118.662 105.373C118.345 105.889 117.92 106.306 117.387 106.623C116.853 106.939 116.253 107.098 115.587 107.098ZM115.587 105.323C116.087 105.323 116.495 105.164 116.812 104.848C117.128 104.514 117.287 104.089 117.287 103.573C117.287 103.073 117.12 102.664 116.787 102.348C116.47 102.014 116.07 101.848 115.587 101.848C115.103 101.848 114.703 102.014 114.387 102.348C114.07 102.664 113.912 103.073 113.912 103.573C113.912 104.089 114.07 104.514 114.387 104.848C114.703 105.164 115.103 105.323 115.587 105.323ZM105.412 106.848L116.537 89.4977H118.812L107.687 106.848H105.412Z" fill="#9C9FBB"/>
<path d="M3.0419 91.6054C1.69488 91.5018 0.683389 90.3259 0.81917 88.9818C3.35351 63.8932 15.384 40.7028 34.474 24.2429C53.5578 7.7883 78.1827 -0.634871 103.231 0.657051C104.587 0.726988 105.601 1.91155 105.498 3.26541C105.394 4.62075 104.211 5.63207 102.854 5.56392C79.1014 4.37146 55.7585 12.3728 37.6611 27.9769C19.5574 43.5863 8.13683 65.5673 5.70181 89.3533C5.56408 90.6987 4.39039 91.7091 3.0419 91.6054Z" fill="#323551"/>
<path d="M18.2916 151.348C17.1559 152.093 15.6283 151.774 14.9174 150.617C8.6004 140.334 4.21838 128.964 1.998 117.072C-0.22316 105.177 -0.240421 92.9786 1.93962 81.0896C2.18381 79.7579 3.48724 78.9098 4.81193 79.1897C6.13281 79.4687 6.97511 80.764 6.73321 82.0922C4.68256 93.3516 4.70573 104.901 6.80893 116.165C8.91213 127.429 13.0569 138.201 19.0298 147.947C19.7349 149.097 19.4198 150.608 18.2916 151.348Z" fill="#82F0FF"/>
<path d="M151.392 178.607C152.142 179.731 151.844 181.254 150.705 181.981C139.984 188.825 128.034 193.511 115.518 195.77C102.201 198.173 88.5332 197.776 75.3766 194.603C62.22 191.431 49.8606 185.551 39.0782 177.337C28.9419 169.614 20.4063 159.986 13.9417 148.994C13.2577 147.831 13.6822 146.342 14.8589 145.682C16.0428 145.018 17.5381 145.445 18.2281 146.614C24.3607 157.004 32.4436 166.109 42.0351 173.416C52.2784 181.22 64.0198 186.805 76.5186 189.819C89.0173 192.833 102.002 193.211 114.653 190.927C126.495 188.79 137.805 184.365 147.958 177.906C149.106 177.176 150.636 177.475 151.392 178.607Z" fill="#FFA5CB"/>
<path d="M190.796 122.301C192.105 122.632 192.902 123.96 192.543 125.261C188.923 138.355 182.642 150.562 174.087 161.107C165.538 171.643 154.915 180.278 142.895 186.474C141.685 187.098 140.21 186.579 139.622 185.352C139.037 184.131 139.551 182.67 140.753 182.049C152.135 176.166 162.194 167.98 170.293 157.998C178.393 148.014 184.347 136.463 187.791 124.073C188.153 122.768 189.483 121.97 190.796 122.301Z" fill="#63ABFD"/>
<path d="M98.2166 2.98781C98.2166 1.62925 99.3183 0.524679 100.676 0.558983C115.419 0.931367 129.9 4.64737 143.03 11.4423C156.891 18.6147 168.846 29.0103 177.902 41.764C186.959 54.5177 192.853 69.2607 195.096 84.7663C197.222 99.4606 196.01 114.437 191.564 128.575C191.157 129.868 189.757 130.55 188.476 130.107C187.201 129.667 186.525 128.278 186.929 126.99C191.126 113.589 192.267 99.3982 190.252 85.4742C188.122 70.7439 182.521 56.738 173.918 44.622C165.315 32.5059 153.957 22.6301 140.79 15.8163C128.352 9.38006 114.64 5.85165 100.676 5.48039C99.3182 5.44428 98.2166 4.34636 98.2166 2.98781Z" fill="#E697FF"/>
</svg>
