<svg width="93" height="94" viewBox="0 0 93 94" fill="none" xmlns="http://www.w3.org/2000/svg">
<path d="M9.71445 71.4878C8.63877 72.1934 7.18899 71.8924 6.54321 70.7798C2.0037 62.9587 -0.179027 53.9606 0.2896 44.8845C0.798452 35.0293 4.40709 25.5909 10.5955 17.9293C16.784 10.2677 25.2327 4.77848 34.7243 2.25268C43.4671 -0.0738761 52.6789 0.224493 61.2286 3.08382C62.4452 3.49069 63.0353 4.84236 62.5719 6.03859C62.1064 7.24063 60.7544 7.829 59.5295 7.42746C51.9012 4.92677 43.6993 4.68479 35.911 6.75736C27.3685 9.03059 19.7647 13.9708 14.1951 20.8663C8.62548 27.7617 5.3777 36.2563 4.91973 45.126C4.50163 53.2237 6.42853 61.2523 10.4422 68.2484C11.0782 69.3569 10.7831 70.7869 9.71445 71.4878Z" fill="#F765A3"/>
<path d="M71.1314 84.0738C71.8422 85.1389 71.5614 86.5836 70.4652 87.2455C64.0833 91.0986 56.8612 93.3564 49.4075 93.8124C41.1834 94.3155 32.9744 92.6067 25.6255 88.862C18.2767 85.1173 12.0534 79.4719 7.59639 72.5069C3.55574 66.1926 1.09903 59.0006 0.420283 51.5469C0.304211 50.2723 1.3037 49.1917 2.58251 49.1382C3.86208 49.0848 4.93598 50.0801 5.05919 51.3549C5.69957 57.9801 7.90133 64.3691 11.4958 69.9862C15.5072 76.2547 21.1081 81.3355 27.7221 84.7057C34.336 88.076 41.7241 89.6139 49.1259 89.1611C55.7497 88.7559 62.1703 86.7696 67.8604 83.3812C68.968 82.7217 70.4159 83.0016 71.1314 84.0738Z" fill="#BAEFFF"/>
<path d="M46.5909 3.03045C46.5909 1.74366 47.6349 0.694361 48.9201 0.759299C59.4169 1.28969 69.4499 5.3927 77.3487 12.4312C85.8299 19.9887 91.2629 30.4071 92.6207 41.7171C93.9785 53.0272 91.1671 64.4454 84.7179 73.8137C78.7124 82.5374 69.9398 88.9208 59.8714 91.9459C58.6374 92.3167 57.3716 91.5445 57.0665 90.2926C56.7625 89.0448 57.5285 87.7928 58.7564 87.4166C67.7287 84.6684 75.5427 78.952 80.9052 71.1622C86.7095 62.7308 89.2398 52.4544 88.0177 42.2754C86.7957 32.0963 81.906 22.7198 74.2729 15.918C67.2224 9.63542 58.2825 5.95152 48.9199 5.42573C47.6351 5.35358 46.5909 4.31725 46.5909 3.03045Z" fill="#FFCFA4"/>
<path d="M31.5344 51L36.7344 38.22L38.5944 38.28L33.5144 51H31.5344ZM29.3544 38.8V37.12H38.5944V38.28L37.7744 38.8H29.3544ZM44.2022 51.2C43.2555 51.2 42.4089 51.0333 41.6622 50.7C40.9289 50.3533 40.3089 49.8533 39.8022 49.2L41.0822 47.92C41.3889 48.3867 41.8089 48.76 42.3422 49.04C42.8889 49.3067 43.4955 49.44 44.1622 49.44C44.7889 49.44 45.3355 49.32 45.8022 49.08C46.2822 48.84 46.6555 48.5067 46.9222 48.08C47.2022 47.64 47.3422 47.12 47.3422 46.52C47.3422 45.9067 47.2089 45.3867 46.9422 44.96C46.6755 44.5333 46.3155 44.2133 45.8622 44C45.4222 43.7733 44.9355 43.66 44.4022 43.66C43.8555 43.66 43.3555 43.7267 42.9022 43.86C42.4622 43.9933 42.0422 44.22 41.6422 44.54L41.6622 43.34C41.8889 43.06 42.1489 42.8333 42.4422 42.66C42.7355 42.4867 43.0689 42.3533 43.4422 42.26C43.8155 42.1667 44.2489 42.12 44.7422 42.12C45.7022 42.12 46.5155 42.32 47.1822 42.72C47.8489 43.12 48.3555 43.66 48.7022 44.34C49.0622 45.02 49.2422 45.78 49.2422 46.62C49.2422 47.5 49.0222 48.2867 48.5822 48.98C48.1555 49.6733 47.5622 50.22 46.8022 50.62C46.0422 51.0067 45.1755 51.2 44.2022 51.2ZM41.6422 44.54L40.6222 43.52L41.2422 37.12H42.9622L42.2622 43.7L41.6422 44.54ZM41.6222 38.8L41.2422 37.12H48.5422V38.8H41.6222ZM53.8625 42.54C53.3558 42.54 52.8892 42.4133 52.4625 42.16C52.0358 41.9067 51.6958 41.5667 51.4425 41.14C51.1892 40.7133 51.0625 40.24 51.0625 39.72C51.0625 39.1867 51.1825 38.7133 51.4225 38.3C51.6758 37.8867 52.0158 37.5533 52.4425 37.3C52.8692 37.0467 53.3425 36.92 53.8625 36.92C54.3958 36.92 54.8758 37.0467 55.3025 37.3C55.7292 37.5533 56.0692 37.8867 56.3225 38.3C56.5758 38.7133 56.7025 39.1867 56.7025 39.72C56.7025 40.24 56.5758 40.7133 56.3225 41.14C56.0692 41.5667 55.7292 41.9067 55.3025 42.16C54.8892 42.4133 54.4092 42.54 53.8625 42.54ZM53.8625 41.12C54.2625 41.12 54.5892 40.9933 54.8425 40.74C55.0958 40.4733 55.2225 40.1333 55.2225 39.72C55.2225 39.3067 55.0892 38.9733 54.8225 38.72C54.5692 38.4667 54.2492 38.34 53.8625 38.34C53.4758 38.34 53.1558 38.4667 52.9025 38.72C52.6625 38.9733 52.5425 39.3067 52.5425 39.72C52.5425 40.1333 52.6625 40.4733 52.9025 40.74C53.1558 40.9933 53.4758 41.12 53.8625 41.12ZM59.4425 51.2C58.9225 51.2 58.4492 51.0733 58.0225 50.82C57.5958 50.5667 57.2558 50.2333 57.0025 49.82C56.7492 49.3933 56.6225 48.9133 56.6225 48.38C56.6225 47.86 56.7492 47.3933 57.0025 46.98C57.2558 46.5533 57.5958 46.2133 58.0225 45.96C58.4492 45.7067 58.9225 45.58 59.4425 45.58C59.9625 45.58 60.4358 45.7067 60.8625 45.96C61.3025 46.2133 61.6492 46.5533 61.9025 46.98C62.1558 47.3933 62.2825 47.86 62.2825 48.38C62.2825 48.9133 62.1558 49.3933 61.9025 49.82C61.6492 50.2333 61.3092 50.5667 60.8825 50.82C60.4558 51.0733 59.9758 51.2 59.4425 51.2ZM59.4425 49.78C59.8425 49.78 60.1692 49.6533 60.4225 49.4C60.6758 49.1333 60.8025 48.7933 60.8025 48.38C60.8025 47.98 60.6692 47.6533 60.4025 47.4C60.1492 47.1333 59.8292 47 59.4425 47C59.0558 47 58.7358 47.1333 58.4825 47.4C58.2292 47.6533 58.1025 47.98 58.1025 48.38C58.1025 48.7933 58.2292 49.1333 58.4825 49.4C58.7358 49.6533 59.0558 49.78 59.4425 49.78ZM51.3025 51L60.2025 37.12H62.0225L53.1225 51H51.3025Z" fill="#9C9FBB"/>
</svg>
